<?xml version="1.0" encoding="UTF-8" standalone="no"?>
<!-- Created with Inkscape (http://www.inkscape.org/) -->

<svg
   width="255.99998"
   height="255.99998"
   viewBox="0 0 67.73333 67.73333"
   version="1.1"
   id="svg1"
   xml:space="preserve"
   sodipodi:docname="Typaste.svg"
   inkscape:version="1.3 (0e150ed6c4, 2023-07-21)"
   inkscape:export-filename="Typaste.png"
   inkscape:export-xdpi="96"
   inkscape:export-ydpi="96"
   xmlns:inkscape="http://www.inkscape.org/namespaces/inkscape"
   xmlns:sodipodi="http://sodipodi.sourceforge.net/DTD/sodipodi-0.dtd"
   xmlns="http://www.w3.org/2000/svg"
   xmlns:svg="http://www.w3.org/2000/svg"><sodipodi:namedview
     id="namedview1"
     pagecolor="#ffffff"
     bordercolor="#666666"
     borderopacity="1.0"
     inkscape:showpageshadow="2"
     inkscape:pageopacity="0.0"
     inkscape:pagecheckerboard="0"
     inkscape:deskcolor="#d1d1d1"
     inkscape:document-units="mm"
     inkscape:zoom="1.1767059"
     inkscape:cx="-66.711658"
     inkscape:cy="162.74245"
     inkscape:window-width="1366"
     inkscape:window-height="705"
     inkscape:window-x="-8"
     inkscape:window-y="-8"
     inkscape:window-maximized="1"
     inkscape:current-layer="layer1" /><defs
     id="defs1"><pattern
       id="EMFhbasepattern"
       patternUnits="userSpaceOnUse"
       width="6"
       height="6"
       x="0"
       y="0" /></defs><g
     inkscape:label="Layer 1"
     inkscape:groupmode="layer"
     id="layer1"
     transform="translate(-148.02199,-146.11406)"><rect
       style="fill:#0099ff;fill-opacity:1;stroke:#000000;stroke-width:0;paint-order:fill markers stroke"
       id="rect1"
       width="67.733322"
       height="67.733322"
       x="148.02199"
       y="146.11406" /><path
       style="fill:#000000;fill-opacity:1;stroke:#000000;stroke-width:0.264583px;stroke-linecap:butt;stroke-linejoin:miter;stroke-opacity:1"
       d="m 187.13441,211.21959 c 3.2567,-2.95923 5.96891,-5.29414 8.10867,-12.16067 1.7099,-9.88124 2.09364,-13.62265 2.2781,-20.35118 -0.21651,-3.52473 -0.17032,-6.15562 -0.96758,-9.50103 2.10789,0.92013 6.11831,1.04442 9.02406,0.92668 2.90575,-0.11774 4.9829,-1.06135 6.99572,-2.23721 2.01282,-1.17586 3.39131,-3.12417 4.29283,-5.40578 0.90152,-2.28161 0.43829,-4.66409 -0.48828,-6.89128 -0.92657,-2.22719 -1.80923,-3.52813 -4.09525,-5.20821 -2.28602,-1.68008 -7.63291,-4.58034 -10.86145,-5.5488 -3.22854,-0.96846 -4.53245,-0.56072 -7.60909,-0.15899 -3.07664,0.40173 -5.23133,1.86834 -8.42666,2.38491 -3.19533,0.51657 -7.39278,0.37491 -10.65257,0.47698 -3.25979,0.10207 -6.05825,0.35526 -8.90364,0.15899 -2.84539,-0.19627 -6.69566,-0.91132 -9.45778,-0.91539 -5.13831,-0.23446 -8.31013,2.59908 -8.98547,6.48016 1.12346,4.55563 2.81745,7.1396 5.24678,10.33459 2.42933,3.19499 6.46975,5.82473 9.22163,8.42666 2.75188,2.60193 4.83343,5.29023 7.31371,7.94968 2.48028,2.65945 3.01436,5.43097 3.17987,8.58565 0.16551,3.15468 -0.22771,6.38668 -0.63598,8.90364 -0.40827,2.51696 -2.54389,6.83672 -2.54389,6.83672 0,0 2.46603,3.34252 4.13383,4.9288 1.6678,1.58628 3.58234,3.91369 5.88276,4.45182 2.30042,0.53813 4.69297,0.4925 7.94968,-2.46674 z"
       id="path1"
       sodipodi:nodetypes="zccczzzzzzzzzzcczzzzzczzz" /><rect
       style="fill:#ffffff;fill-opacity:1;stroke:#000000;stroke-width:0;paint-order:fill markers stroke"
       id="rect2"
       width="49.923985"
       height="6.999999"
       x="157.24362"
       y="154.4339" /><rect
       style="fill:#ffffff;fill-opacity:1;stroke:#000000;stroke-width:0;paint-order:fill markers stroke"
       id="rect3"
       width="6.999999"
       height="46.317005"
       x="178.44194"
       y="156.11406" /></g></svg>
